<?xml version="1.0" encoding="utf-8"?>
<!-- Generator: Adobe Illustrator 19.0.0, SVG Export Plug-In . SVG Version: 6.00 Build 0)  -->
<svg version="1.1" id="Capa_1" xmlns="http://www.w3.org/2000/svg" xmlns:xlink="http://www.w3.org/1999/xlink" x="0px" y="0px"
	 viewBox="0 0 589.7 119.9" style="enable-background:new 0 0 589.7 119.9;" xml:space="preserve">
<style type="text/css">
	.st0{fill:#FFFFFF;}
	.st1{fill:#359C89;}
	.st2{fill:none;}
</style>
<path id="XMLID_20_" class="st0" d="M50.4,57.8c4.4,5.4,7,11.5,7.7,18.4h0.2V119h-7.1V79.8c0-9.1-3.6-16.4-10.9-21.9H7V119H0V0h42.9
	c3,1.9,5.6,4.3,7.9,7c5.3,6.4,8,13.7,8,22c0,8.2-2.7,15.6-8,21.9c-1.1,1.3-2.2,2.5-3.5,3.7C48.4,55.6,49.4,56.7,50.4,57.8z M7,7
	v43.8h34C48.2,45.3,51.8,38,51.8,29c0-9.2-3.7-16.5-11-22H7z"/>
<path id="XMLID_23_" class="st0" d="M82.3,112c-2.7-2.2-5-4.8-6.9-7.7V50.4h6.9V102c5.5,7.3,12.7,11,21.7,11c9.1,0,16.3-3.7,21.7-11
	V50.4h6.9v53.9c-1.9,2.9-4.2,5.5-6.9,7.7c-6.3,5.3-13.6,7.9-21.7,7.9C95.8,119.9,88.6,117.2,82.3,112z"/>
<path id="XMLID_25_" class="st0" d="M178.2,50.2h22.1V0h7v119h-29.2c-8.2-0.1-15.4-2.7-21.7-8c-2.7-2.3-5-4.9-7-7.9V66.1
	c1.9-3,4.3-5.6,7-7.9C162.7,52.9,170,50.3,178.2,50.2z M156.3,101c5.5,7.4,12.9,11,22,11h22V57.3h-22c-9.1,0-16.5,3.7-22,11V101z"/>
<path id="XMLID_28_" class="st0" d="M254.2,81.4l16.9-16.9c-5.3-5.4-11.6-8.1-19.2-8.1c-9,0-16.1,3.6-21.5,10.8v35
	c5.4,7.2,12.5,10.8,21.5,10.8c8.9,0,16.1-3.6,21.5-10.8l6.8,2.2c-1.9,2.9-4.2,5.5-6.8,7.7c-6.3,5.2-13.4,7.8-21.5,7.8h-0.1
	c-8.1,0-15.2-2.6-21.4-7.8c-2.7-2.2-5-4.8-6.9-7.7V65.1c1.9-2.9,4.2-5.5,6.9-7.7c6.2-5.2,13.4-7.8,21.5-7.8s15.3,2.6,21.5,7.8
	c2.7,2.2,4.9,4.7,6.8,7.6l0.1,0.1L259,86.3L254.2,81.4z"/>
<path id="XMLID_30_" class="st1" d="M303.1,111.9c-2.7-2.3-5-4.9-7-7.8V0h7v101.9c5.5,7.4,12.8,11,22,11c9.1,0,16.4-3.7,21.9-11V0h7
	v101.9c5.5,7.3,12.9,11,22,11s16.4-3.7,21.9-11V0h7v104.1c-1.9,2.9-4.2,5.5-7,7.8c-6.4,5.3-13.7,8-21.9,8c-8.3,0-15.6-2.7-22-8
	c-1.2-1-2.4-2.1-3.5-3.3c-1.1,1.2-2.3,2.3-3.5,3.3c-6.4,5.3-13.7,8-21.9,8C316.8,119.9,309.5,117.2,303.1,111.9z"/>
<path id="XMLID_32_" class="st1" d="M473.6,57.4c2.7,2.3,5,4.9,6.9,7.8V119h-28.6c-8.2,0-15.4-2.6-21.7-7.9c-2.7-2.2-5-4.8-6.9-7.7
	V65.2c1.9-2.9,4.2-5.5,6.9-7.8c6.3-5.2,13.6-7.8,21.7-7.8C460,49.6,467.3,52.2,473.6,57.4z M473.6,67.3
	c-5.4-7.2-12.7-10.9-21.7-10.9c-9,0-16.3,3.6-21.7,10.9v33.9c5.5,7.3,12.7,11,21.7,11h21.7V67.3z"/>
<path id="XMLID_35_" class="st1" d="M526.8,50.4v6.9c-9,0-16.3,3.6-21.7,10.9V119h-6.9V66c1.9-2.9,4.2-5.5,6.9-7.8
	C511.3,53,518.6,50.4,526.8,50.4z"/>
<path id="XMLID_37_" class="st1" d="M563.5,81.4l16.9-16.9c-5.3-5.4-11.6-8.1-19.2-8.1c-9,0-16.1,3.6-21.5,10.8v35
	c5.4,7.2,12.5,10.8,21.5,10.8c8.9,0,16.1-3.6,21.5-10.8l6.8,2.2c-1.9,2.9-4.2,5.5-6.8,7.7c-6.3,5.2-13.4,7.8-21.5,7.8h-0.1
	c-8.1,0-15.2-2.6-21.4-7.8c-2.7-2.2-5-4.8-6.9-7.7V65.1c1.9-2.9,4.2-5.5,6.9-7.7c6.2-5.2,13.4-7.8,21.5-7.8s15.3,2.6,21.5,7.8
	c2.7,2.2,4.9,4.7,6.8,7.6l0.1,0.1l-21.3,21.3L563.5,81.4z"/>
<rect id="XMLID_3_" x="317.6" y="56.6" class="st2" width="80" height="0"/>
</svg>
